0
SECTION
2
HEADER
9
$ACADVER
1
AC1024
9
$INSUNITS
70
6
9
$MEASUREMENT
70
1
9
$EXTMIN
10
-32.5
20
-46
30
0
9
$EXTMAX
10
32.5
20
46
30
20
0
ENDSEC
0
SECTION
2
TABLES
0
TABLE
2
LTYPE
70
2
0
LTYPE
2
CONTINUOUS
70
0
3
Solid line
72
65
73
0
40
0
0
LTYPE
2
DASHED
70
0
3
Dashed line
72
65
73
2
40
1.0
49
0.5
49
-0.5
0
ENDTAB
0
TABLE
2
LAYER
70
16
0
LAYER
2
0
70
0
62
7
6
CONTINUOUS
0
LAYER
2
SITE_BOUNDARY
70
0
62
3
6
CONTINUOUS
0
LAYER
2
PARCEL
70
0
62
4
6
CONTINUOUS
0
LAYER
2
BESTAND
70
0
62
30
6
CONTINUOUS
0
LAYER
2
NACHBAR
70
0
62
32
6
CONTINUOUS
0
LAYER
2
BAUFENSTER
70
0
62
2
6
CONTINUOUS
0
LAYER
2
ABSTAND
70
0
62
52
6
CONTINUOUS
0
LAYER
2
STRASSE
70
0
62
8
6
CONTINUOUS
0
LAYER
2
OPTION_BUNGALOW
70
0
62
82
6
CONTINUOUS
0
LAYER
2
OPTION_EFH
70
0
62
150
6
CONTINUOUS
0
LAYER
2
OPTION_DOPPELHAUS
70
0
62
200
6
CONTINUOUS
0
LAYER
2
OPTION_ERSATZ
70
0
62
30
6
CONTINUOUS
0
LAYER
2
GRUENFLAECHE
70
0
62
92
6
CONTINUOUS
0
LAYER
2
TECHNIK
70
0
62
9
6
CONTINUOUS
0
LAYER
2
BAEUME
70
0
62
84
6
CONTINUOUS
0
LAYER
2
PARKPLATZ
70
0
62
8
6
CONTINUOUS
0
ENDTAB
0
TABLE
2
STYLE
70
1
0
STYLE
2
STANDARD
70
0
40
0
41
1
50
0
71
0
42
2.5
3
txt
4

0
ENDTAB
0
ENDSEC
0
SECTION
2
BLOCKS
0
BLOCK
2
*MODEL_SPACE
70
0
10
0
20
0
30
0
3
*MODEL_SPACE
0
ENDBLK
0
BLOCK
2
*PAPER_SPACE
70
0
10
0
20
0
30
0
3
*PAPER_SPACE
0
ENDBLK
0
BLOCK
2
BESTAND_WOHNHAUS
70
0
10
0
20
0
30
0
0
LWPOLYLINE
8
BESTAND
90
4
70
1
10
-5.75
20
-4.45
10
5.75
20
-4.45
10
5.75
20
4.45
10
-5.75
20
4.45
0
3DFACE
8
BESTAND
10
-5.75
20
-4.45
30
0
11
5.75
21
-4.45
31
0
12
5.75
22
4.45
32
0
13
-5.75
23
4.45
33
0
0
3DFACE
8
BESTAND
10
-5.75
20
-4.45
30
8.5
11
5.75
21
-4.45
31
8.5
12
5.75
22
4.45
32
8.5
13
-5.75
23
4.45
33
8.5
0
LINE
8
BESTAND
10
-5.75
20
-4.45
30
0
11
-5.75
21
-4.45
31
8.5
0
LINE
8
BESTAND
10
5.75
20
-4.45
30
0
11
5.75
21
-4.45
31
8.5
0
LINE
8
BESTAND
10
5.75
20
4.45
30
0
11
5.75
21
4.45
31
8.5
0
LINE
8
BESTAND
10
-5.75
20
4.45
30
0
11
-5.75
21
4.45
31
8.5
0
TEXT
8
BESTAND
10
0
20
0
30
8.8
40
0.6
1
Wohnhaus 12 · 11,5×8,9 m · EG + DG
72
1
11
0
21
0
31
8.8
0
ENDBLK
0
BLOCK
2
BESTAND_GARAGE
70
0
10
0
20
0
30
0
0
LWPOLYLINE
8
BESTAND
90
4
70
1
10
-3.175
20
-1.985
10
3.175
20
-1.985
10
3.175
20
1.985
10
-3.175
20
1.985
0
3DFACE
8
BESTAND
10
-3.175
20
-1.985
30
0
11
3.175
21
-1.985
31
0
12
3.175
22
1.985
32
0
13
-3.175
23
1.985
33
0
0
3DFACE
8
BESTAND
10
-3.175
20
-1.985
30
2.8
11
3.175
21
-1.985
31
2.8
12
3.175
22
1.985
32
2.8
13
-3.175
23
1.985
33
2.8
0
LINE
8
BESTAND
10
-3.175
20
-1.985
30
0
11
-3.175
21
-1.985
31
2.8
0
LINE
8
BESTAND
10
3.175
20
-1.985
30
0
11
3.175
21
-1.985
31
2.8
0
LINE
8
BESTAND
10
3.175
20
1.985
30
0
11
3.175
21
1.985
31
2.8
0
LINE
8
BESTAND
10
-3.175
20
1.985
30
0
11
-3.175
21
1.985
31
2.8
0
TEXT
8
BESTAND
10
0
20
0
30
3.0999999999999996
40
0.6
1
Garage 6,4×4,0 m
72
1
11
0
21
0
31
3.0999999999999996
0
ENDBLK
0
BLOCK
2
NACHBAR_7
70
0
10
0
20
0
30
0
0
LWPOLYLINE
8
NACHBAR
90
4
70
1
10
-4
20
-3.6
10
4
20
-3.6
10
4
20
3.6
10
-4
20
3.6
0
3DFACE
8
NACHBAR
10
-4
20
-3.6
30
0
11
4
21
-3.6
31
0
12
4
22
3.6
32
0
13
-4
23
3.6
33
0
0
3DFACE
8
NACHBAR
10
-4
20
-3.6
30
7.5
11
4
21
-3.6
31
7.5
12
4
22
3.6
32
7.5
13
-4
23
3.6
33
7.5
0
LINE
8
NACHBAR
10
-4
20
-3.6
30
0
11
-4
21
-3.6
31
7.5
0
LINE
8
NACHBAR
10
4
20
-3.6
30
0
11
4
21
-3.6
31
7.5
0
LINE
8
NACHBAR
10
4
20
3.6
30
0
11
4
21
3.6
31
7.5
0
LINE
8
NACHBAR
10
-4
20
3.6
30
0
11
-4
21
3.6
31
7.5
0
TEXT
8
NACHBAR
10
0
20
0
30
7.8
40
0.6
1
Nr. 7
72
1
11
0
21
0
31
7.8
0
ENDBLK
0
BLOCK
2
NACHBAR_14
70
0
10
0
20
0
30
0
0
LWPOLYLINE
8
NACHBAR
90
4
70
1
10
-4.25
20
-3.5
10
4.25
20
-3.5
10
4.25
20
3.5
10
-4.25
20
3.5
0
3DFACE
8
NACHBAR
10
-4.25
20
-3.5
30
0
11
4.25
21
-3.5
31
0
12
4.25
22
3.5
32
0
13
-4.25
23
3.5
33
0
0
3DFACE
8
NACHBAR
10
-4.25
20
-3.5
30
7
11
4.25
21
-3.5
31
7
12
4.25
22
3.5
32
7
13
-4.25
23
3.5
33
7
0
LINE
8
NACHBAR
10
-4.25
20
-3.5
30
0
11
-4.25
21
-3.5
31
7
0
LINE
8
NACHBAR
10
4.25
20
-3.5
30
0
11
4.25
21
-3.5
31
7
0
LINE
8
NACHBAR
10
4.25
20
3.5
30
0
11
4.25
21
3.5
31
7
0
LINE
8
NACHBAR
10
-4.25
20
3.5
30
0
11
-4.25
21
3.5
31
7
0
TEXT
8
NACHBAR
10
0
20
0
30
7.3
40
0.6
1
Nr. 14
72
1
11
0
21
0
31
7.3
0
ENDBLK
0
BLOCK
2
NACHBAR_1
70
0
10
0
20
0
30
0
0
LWPOLYLINE
8
NACHBAR
90
4
70
1
10
-4
20
-3.25
10
4
20
-3.25
10
4
20
3.25
10
-4
20
3.25
0
3DFACE
8
NACHBAR
10
-4
20
-3.25
30
0
11
4
21
-3.25
31
0
12
4
22
3.25
32
0
13
-4
23
3.25
33
0
0
3DFACE
8
NACHBAR
10
-4
20
-3.25
30
7
11
4
21
-3.25
31
7
12
4
22
3.25
32
7
13
-4
23
3.25
33
7
0
LINE
8
NACHBAR
10
-4
20
-3.25
30
0
11
-4
21
-3.25
31
7
0
LINE
8
NACHBAR
10
4
20
-3.25
30
0
11
4
21
-3.25
31
7
0
LINE
8
NACHBAR
10
4
20
3.25
30
0
11
4
21
3.25
31
7
0
LINE
8
NACHBAR
10
-4
20
3.25
30
0
11
-4
21
3.25
31
7
0
TEXT
8
NACHBAR
10
0
20
0
30
7.3
40
0.6
1
Nr. 1
72
1
11
0
21
0
31
7.3
0
ENDBLK
0
BLOCK
2
OPTION_BUNGALOW
70
0
10
0
20
0
30
0
0
LWPOLYLINE
8
OPTION_BUNGALOW
90
4
70
1
10
-9
20
-4.5
10
9
20
-4.5
10
9
20
4.5
10
-9
20
4.5
0
3DFACE
8
OPTION_BUNGALOW
10
-9
20
-4.5
30
0
11
9
21
-4.5
31
0
12
9
22
4.5
32
0
13
-9
23
4.5
33
0
0
3DFACE
8
OPTION_BUNGALOW
10
-9
20
-4.5
30
3.5
11
9
21
-4.5
31
3.5
12
9
22
4.5
32
3.5
13
-9
23
4.5
33
3.5
0
LINE
8
OPTION_BUNGALOW
10
-9
20
-4.5
30
0
11
-9
21
-4.5
31
3.5
0
LINE
8
OPTION_BUNGALOW
10
9
20
-4.5
30
0
11
9
21
-4.5
31
3.5
0
LINE
8
OPTION_BUNGALOW
10
9
20
4.5
30
0
11
9
21
4.5
31
3.5
0
LINE
8
OPTION_BUNGALOW
10
-9
20
4.5
30
0
11
-9
21
4.5
31
3.5
0
TEXT
8
OPTION_BUNGALOW
10
0
20
0
30
3.8
40
0.6
1
Bungalow 18×9 m, 1 VG (162 m², GRZ 0,23)
72
1
11
0
21
0
31
3.8
0
ENDBLK
0
BLOCK
2
OPTION_EFH
70
0
10
0
20
0
30
0
0
LWPOLYLINE
8
OPTION_EFH
90
4
70
1
10
-5
20
-4.25
10
5
20
-4.25
10
5
20
4.25
10
-5
20
4.25
0
3DFACE
8
OPTION_EFH
10
-5
20
-4.25
30
0
11
5
21
-4.25
31
0
12
5
22
4.25
32
0
13
-5
23
4.25
33
0
0
3DFACE
8
OPTION_EFH
10
-5
20
-4.25
30
7.2
11
5
21
-4.25
31
7.2
12
5
22
4.25
32
7.2
13
-5
23
4.25
33
7.2
0
LINE
8
OPTION_EFH
10
-5
20
-4.25
30
0
11
-5
21
-4.25
31
7.2
0
LINE
8
OPTION_EFH
10
5
20
-4.25
30
0
11
5
21
-4.25
31
7.2
0
LINE
8
OPTION_EFH
10
5
20
4.25
30
0
11
5
21
4.25
31
7.2
0
LINE
8
OPTION_EFH
10
-5
20
4.25
30
0
11
-5
21
4.25
31
7.2
0
TEXT
8
OPTION_EFH
10
0
20
0
30
7.5
40
0.6
1
EFH 10×8,5 m, 1 VG + DG (85 m² Grund)
72
1
11
0
21
0
31
7.5
0
ENDBLK
0
BLOCK
2
OPTION_DOPPELHAUS
70
0
10
0
20
0
30
0
0
LWPOLYLINE
8
OPTION_DOPPELHAUS
90
4
70
1
10
-8
20
-4.5
10
8
20
-4.5
10
8
20
4.5
10
-8
20
4.5
0
3DFACE
8
OPTION_DOPPELHAUS
10
-8
20
-4.5
30
0
11
8
21
-4.5
31
0
12
8
22
4.5
32
0
13
-8
23
4.5
33
0
0
3DFACE
8
OPTION_DOPPELHAUS
10
-8
20
-4.5
30
7.5
11
8
21
-4.5
31
7.5
12
8
22
4.5
32
7.5
13
-8
23
4.5
33
7.5
0
LINE
8
OPTION_DOPPELHAUS
10
-8
20
-4.5
30
0
11
-8
21
-4.5
31
7.5
0
LINE
8
OPTION_DOPPELHAUS
10
8
20
-4.5
30
0
11
8
21
-4.5
31
7.5
0
LINE
8
OPTION_DOPPELHAUS
10
8
20
4.5
30
0
11
8
21
4.5
31
7.5
0
LINE
8
OPTION_DOPPELHAUS
10
-8
20
4.5
30
0
11
-8
21
4.5
31
7.5
0
TEXT
8
OPTION_DOPPELHAUS
10
0
20
0
30
7.8
40
0.6
1
Doppelhaus 16×9 m, 1 VG + DG (144 m² Grund)
72
1
11
0
21
0
31
7.8
0
ENDBLK
0
BLOCK
2
OPTION_ERSATZ
70
0
10
0
20
0
30
0
0
LWPOLYLINE
8
OPTION_ERSATZ
90
4
70
1
10
-6
20
-5
10
6
20
-5
10
6
20
5
10
-6
20
5
0
3DFACE
8
OPTION_ERSATZ
10
-6
20
-5
30
0
11
6
21
-5
31
0
12
6
22
5
32
0
13
-6
23
5
33
0
0
3DFACE
8
OPTION_ERSATZ
10
-6
20
-5
30
7.2
11
6
21
-5
31
7.2
12
6
22
5
32
7.2
13
-6
23
5
33
7.2
0
LINE
8
OPTION_ERSATZ
10
-6
20
-5
30
0
11
-6
21
-5
31
7.2
0
LINE
8
OPTION_ERSATZ
10
6
20
-5
30
0
11
6
21
-5
31
7.2
0
LINE
8
OPTION_ERSATZ
10
6
20
5
30
0
11
6
21
5
31
7.2
0
LINE
8
OPTION_ERSATZ
10
-6
20
5
30
0
11
-6
21
5
31
7.2
0
TEXT
8
OPTION_ERSATZ
10
0
20
0
30
7.5
40
0.6
1
Ersatzneubau 12×10 m auf 121/1
72
1
11
0
21
0
31
7.5
0
ENDBLK
0
BLOCK
2
PV_FELD
70
0
10
0
20
0
30
0
0
LWPOLYLINE
8
TECHNIK
90
4
70
1
10
-4
20
-2.5
10
4
20
-2.5
10
4
20
2.5
10
-4
20
2.5
0
3DFACE
8
TECHNIK
10
-4
20
-2.5
30
0
11
4
21
-2.5
31
0
12
4
22
2.5
32
0
13
-4
23
2.5
33
0
0
3DFACE
8
TECHNIK
10
-4
20
-2.5
30
0.5
11
4
21
-2.5
31
0.5
12
4
22
2.5
32
0.5
13
-4
23
2.5
33
0.5
0
LINE
8
TECHNIK
10
-4
20
-2.5
30
0
11
-4
21
-2.5
31
0.5
0
LINE
8
TECHNIK
10
4
20
-2.5
30
0
11
4
21
-2.5
31
0.5
0
LINE
8
TECHNIK
10
4
20
2.5
30
0
11
4
21
2.5
31
0.5
0
LINE
8
TECHNIK
10
-4
20
2.5
30
0
11
-4
21
2.5
31
0.5
0
TEXT
8
TECHNIK
10
0
20
0
30
0.8
40
0.6
1
PV-Feld
72
1
11
0
21
0
31
0.8
0
ENDBLK
0
BLOCK
2
ZISTERNE
70
0
10
0
20
0
30
0
0
CIRCLE
8
TECHNIK
10
0
20
0
30
0
40
1.5
0
CIRCLE
8
TECHNIK
10
0
20
0
30
2.4
40
1.5
0
TEXT
8
TECHNIK
10
0
20
0
30
2.6999999999999997
40
0.5
1
Zisterne
72
1
11
0
21
0
31
2.6999999999999997
0
ENDBLK
0
ENDSEC
0
SECTION
2
ENTITIES
0
LWPOLYLINE
8
SITE_BOUNDARY
90
11
70
1
10
-28.388
20
1.835
10
-19.622
20
7.371
10
-14.833
20
20.443
10
-8.132
20
38.747
10
26.54
20
26.268
10
19.873
20
7.937
10
15.096
20
-5.184
10
13.482
20
-9.631
10
8.082
20
-24.455
10
1.399
20
-42.818
10
-13.494
20
-20.491
0
LWPOLYLINE
8
PARCEL
90
4
70
1
10
-14.833
20
20.443
10
-8.132
20
38.747
10
26.54
20
26.268
10
19.873
20
7.937
0
TEXT
8
PARCEL
10
5.862
20
23.34875
30
0
40
0.5
1
Flst. 121/2 · 719 m² · Am Osterfeld
72
1
11
5.862
21
23.34875
31
0
0
LWPOLYLINE
8
BAUFENSTER
90
4
70
1
10
-10.979
20
22.245
10
-7.716
20
31.158
10
21.311
20
20.711
10
18.081
20
11.77
0
TEXT
8
BAUFENSTER
10
5.17425
20
21.471
30
0
40
0.5
1
Baugrenze 121/2 · 293 m² (7 m Am Osterfeld, 3 m Seite/hinten)
72
1
11
5.17425
21
21.471
31
0
0
LWPOLYLINE
8
STRASSE
90
4
70
1
10
-8.132
20
38.747
10
26.54
20
26.268
10
28.946
20
32.841
10
-5.725
20
45.321
0
TEXT
8
STRASSE
10
10.40725
20
35.79425
30
0
40
0.5
1
Am Osterfeld
72
1
11
10.40725
21
35.79425
31
0
0
LWPOLYLINE
8
STRASSE
90
6
70
1
10
1.399
20
-42.818
10
-13.494
20
-20.491
10
-28.388
20
1.835
10
-36.2
20
-3.4
10
-21.3
20
-25.7
10
-6.4
20
-48
0
TEXT
8
STRASSE
10
-17.397166666666667
20
-23.09566666666667
30
0
40
0.5
1
Ashausener Straße
72
1
11
-17.397166666666667
21
-23.09566666666667
31
0
0
INSERT
8
BESTAND
2
BESTAND_WOHNHAUS
10
-6.936
20
-7.956
30
0
41
1
42
1
43
1
50
57.63955419016082
0
INSERT
8
BESTAND
2
BESTAND_GARAGE
10
-0.794
20
-0.326
30
0
41
1
42
1
43
1
50
-33.86180569223165
0
INSERT
8
NACHBAR
2
NACHBAR_7
10
11.822
20
3.963
30
0
41
1
42
1
43
1
50
20.282705947631143
0
INSERT
8
NACHBAR
2
NACHBAR_14
10
7.791
20
-28.35
30
0
41
1
42
1
43
1
50
20.05352282957881
0
INSERT
8
NACHBAR
2
NACHBAR_1
10
-24.262
20
15.281
30
0
41
1
42
1
43
1
50
31.512678732195283
0
INSERT
8
OPTION_BUNGALOW
2
OPTION_BUNGALOW
10
48
20
22
30
0
41
1
42
1
43
1
50
19.82433971152648
0
INSERT
8
OPTION_EFH
2
OPTION_EFH
10
64
20
22
30
0
41
1
42
1
43
1
50
19.82433971152648
0
INSERT
8
OPTION_DOPPELHAUS
2
OPTION_DOPPELHAUS
10
48
20
4
30
0
41
1
42
1
43
1
50
19.82433971152648
0
INSERT
8
OPTION_ERSATZ
2
OPTION_ERSATZ
10
48
20
-16
30
0
41
1
42
1
43
1
50
0
0
INSERT
8
TECHNIK
2
PV_FELD
10
40
20
-8
30
0
41
1
42
1
43
1
50
0
0
INSERT
8
TECHNIK
2
ZISTERNE
10
40
20
-18
30
0
41
1
42
1
43
1
50
0
0
LWPOLYLINE
8
GRUENFLAECHE
90
4
70
1
10
40
20
-2
10
46
20
-2
10
46
20
2
10
40
20
2
0
TEXT
8
GRUENFLAECHE
10
43
20
0
30
0
40
0.5
1
Grünfläche
72
1
11
43
21
0
31
0
0
CIRCLE
8
BAEUME
10
-6
20
36
30
0
40
2.4
0
CIRCLE
8
BAEUME
10
-6
20
36
30
8
40
0.72
0
POINT
8
BAEUME
10
-6
20
36
30
0
0
CIRCLE
8
BAEUME
10
4
20
32.5
30
0
40
2.2
0
CIRCLE
8
BAEUME
10
4
20
32.5
30
7.5
40
0.66
0
POINT
8
BAEUME
10
4
20
32.5
30
0
0
CIRCLE
8
BAEUME
10
16
20
28
30
0
40
2
0
CIRCLE
8
BAEUME
10
16
20
28
30
7
40
0.6
0
POINT
8
BAEUME
10
16
20
28
30
0
0
CIRCLE
8
BAEUME
10
-16.5
20
16
30
0
40
2.6
0
CIRCLE
8
BAEUME
10
-16.5
20
16
30
8.5
40
0.78
0
POINT
8
BAEUME
10
-16.5
20
16
30
0
0
CIRCLE
8
BAEUME
10
-14
20
-4
30
0
40
2.3
0
CIRCLE
8
BAEUME
10
-14
20
-4
30
7.8
40
0.69
0
POINT
8
BAEUME
10
-14
20
-4
30
0
0
CIRCLE
8
BAEUME
10
-10
20
-22
30
0
40
2.1
0
CIRCLE
8
BAEUME
10
-10
20
-22
30
7.2
40
0.63
0
POINT
8
BAEUME
10
-10
20
-22
30
0
0
TEXT
8
SITE_BOUNDARY
10
0
20
-44
30
0
40
1.2
1
Ashausener Str. 12, Stelle (ca. 2251 m²)
72
1
11
0
21
-44
31
0
0
TEXT
8
SITE_BOUNDARY
10
0
20
-46
30
0
40
0.7
1
Liegenschaftsgrafik 1:500 (LGLN 28.01.2026) + B-Plan Osterfeld West 1980
72
1
11
0
21
-46
31
0
0
TEXT
8
SITE_BOUNDARY
10
0
20
-47.5
30
0
40
0.5
1
Einheiten: Meter | DXF Version: R2010 (AC1024)
72
1
11
0
21
-47.5
31
0
0
ENDSEC
0
EOF
