0
SECTION
2
HEADER
9
$ACADVER
1
AC1024
9
$INSUNITS
70
6
9
$MEASUREMENT
70
1
9
$EXTMIN
10
-25
20
-35
30
0
9
$EXTMAX
10
25
20
35
30
20
0
ENDSEC
0
SECTION
2
TABLES
0
TABLE
2
LTYPE
70
2
0
LTYPE
2
CONTINUOUS
70
0
3
Solid line
72
65
73
0
40
0
0
LTYPE
2
DASHED
70
0
3
Dashed line
72
65
73
2
40
1.0
49
0.5
49
-0.5
0
ENDTAB
0
TABLE
2
LAYER
70
15
0
LAYER
2
0
70
0
62
7
6
CONTINUOUS
0
LAYER
2
SITE_BOUNDARY
70
0
62
3
6
CONTINUOUS
0
LAYER
2
BESTAND
70
0
62
30
6
CONTINUOUS
0
LAYER
2
BAUFENSTER
70
0
62
2
6
CONTINUOUS
0
LAYER
2
ABSTAND
70
0
62
52
6
CONTINUOUS
0
LAYER
2
STRASSE
70
0
62
8
6
CONTINUOUS
0
LAYER
2
LAERMSTREIFEN
70
0
62
1
6
CONTINUOUS
0
LAYER
2
OPTION_BUNGALOW
70
0
62
82
6
CONTINUOUS
0
LAYER
2
OPTION_EFH
70
0
62
150
6
CONTINUOUS
0
LAYER
2
OPTION_MFH
70
0
62
200
6
CONTINUOUS
0
LAYER
2
OPTION_ERSATZ
70
0
62
30
6
CONTINUOUS
0
LAYER
2
GRUENFLAECHE
70
0
62
92
6
CONTINUOUS
0
LAYER
2
TECHNIK
70
0
62
9
6
CONTINUOUS
0
LAYER
2
BAEUME
70
0
62
84
6
CONTINUOUS
0
LAYER
2
PARKPLATZ
70
0
62
8
6
CONTINUOUS
0
ENDTAB
0
TABLE
2
STYLE
70
1
0
STYLE
2
STANDARD
70
0
40
0
41
1
50
0
71
0
42
2.5
3
txt
4

0
ENDTAB
0
ENDSEC
0
SECTION
2
BLOCKS
0
BLOCK
2
*MODEL_SPACE
70
0
10
0
20
0
30
0
3
*MODEL_SPACE
0
ENDBLK
0
BLOCK
2
*PAPER_SPACE
70
0
10
0
20
0
30
0
3
*PAPER_SPACE
0
ENDBLK
0
BLOCK
2
BESTAND_WOHNHAUS
70
0
10
0
20
0
30
0
0
LWPOLYLINE
8
BESTAND
90
4
70
1
10
-6
20
-5
10
6
20
-5
10
6
20
5
10
-6
20
5
0
3DFACE
8
BESTAND
10
-6
20
-5
30
0
11
6
21
-5
31
0
12
6
22
5
32
0
13
-6
23
5
33
0
0
3DFACE
8
BESTAND
10
-6
20
-5
30
6.5
11
6
21
-5
31
6.5
12
6
22
5
32
6.5
13
-6
23
5
33
6.5
0
LINE
8
BESTAND
10
-6
20
-5
30
0
11
-6
21
-5
31
6.5
0
LINE
8
BESTAND
10
6
20
-5
30
0
11
6
21
-5
31
6.5
0
LINE
8
BESTAND
10
6
20
5
30
0
11
6
21
5
31
6.5
0
LINE
8
BESTAND
10
-6
20
5
30
0
11
-6
21
5
31
6.5
0
TEXT
8
BESTAND
10
0
20
0
30
6.8
40
0.6
1
Bestand: Wohnhaus 12×10 m, 2 Geschosse
72
1
11
0
21
0
31
6.8
0
ENDBLK
0
BLOCK
2
BESTAND_SCHUPPEN
70
0
10
0
20
0
30
0
0
LWPOLYLINE
8
BESTAND
90
4
70
1
10
-3
20
-2
10
3
20
-2
10
3
20
2
10
-3
20
2
0
3DFACE
8
BESTAND
10
-3
20
-2
30
0
11
3
21
-2
31
0
12
3
22
2
32
0
13
-3
23
2
33
0
0
3DFACE
8
BESTAND
10
-3
20
-2
30
3
11
3
21
-2
31
3
12
3
22
2
32
3
13
-3
23
2
33
3
0
LINE
8
BESTAND
10
-3
20
-2
30
0
11
-3
21
-2
31
3
0
LINE
8
BESTAND
10
3
20
-2
30
0
11
3
21
-2
31
3
0
LINE
8
BESTAND
10
3
20
2
30
0
11
3
21
2
31
3
0
LINE
8
BESTAND
10
-3
20
2
30
0
11
-3
21
2
31
3
0
TEXT
8
BESTAND
10
0
20
0
30
3.3
40
0.6
1
Bestand: Schuppen 6×4 m
72
1
11
0
21
0
31
3.3
0
ENDBLK
0
BLOCK
2
BESTAND_GARAGE
70
0
10
0
20
0
30
0
0
LWPOLYLINE
8
BESTAND
90
4
70
1
10
-2.5
20
-3
10
2.5
20
-3
10
2.5
20
3
10
-2.5
20
3
0
3DFACE
8
BESTAND
10
-2.5
20
-3
30
0
11
2.5
21
-3
31
0
12
2.5
22
3
32
0
13
-2.5
23
3
33
0
0
3DFACE
8
BESTAND
10
-2.5
20
-3
30
2.8
11
2.5
21
-3
31
2.8
12
2.5
22
3
32
2.8
13
-2.5
23
3
33
2.8
0
LINE
8
BESTAND
10
-2.5
20
-3
30
0
11
-2.5
21
-3
31
2.8
0
LINE
8
BESTAND
10
2.5
20
-3
30
0
11
2.5
21
-3
31
2.8
0
LINE
8
BESTAND
10
2.5
20
3
30
0
11
2.5
21
3
31
2.8
0
LINE
8
BESTAND
10
-2.5
20
3
30
0
11
-2.5
21
3
31
2.8
0
TEXT
8
BESTAND
10
0
20
0
30
3.0999999999999996
40
0.6
1
Bestand: Garage 5×6 m
72
1
11
0
21
0
31
3.0999999999999996
0
ENDBLK
0
BLOCK
2
OPTION_BUNGALOW
70
0
10
0
20
0
30
0
0
LWPOLYLINE
8
OPTION_BUNGALOW
90
4
70
1
10
-8
20
-6
10
8
20
-6
10
8
20
6
10
-8
20
6
0
3DFACE
8
OPTION_BUNGALOW
10
-8
20
-6
30
0
11
8
21
-6
31
0
12
8
22
6
32
0
13
-8
23
6
33
0
0
3DFACE
8
OPTION_BUNGALOW
10
-8
20
-6
30
3.5
11
8
21
-6
31
3.5
12
8
22
6
32
3.5
13
-8
23
6
33
3.5
0
LINE
8
OPTION_BUNGALOW
10
-8
20
-6
30
0
11
-8
21
-6
31
3.5
0
LINE
8
OPTION_BUNGALOW
10
8
20
-6
30
0
11
8
21
-6
31
3.5
0
LINE
8
OPTION_BUNGALOW
10
8
20
6
30
0
11
8
21
6
31
3.5
0
LINE
8
OPTION_BUNGALOW
10
-8
20
6
30
0
11
-8
21
6
31
3.5
0
TEXT
8
OPTION_BUNGALOW
10
0
20
0
30
3.8
40
0.6
1
Bungalow 16×12 m, 1 Geschoss (ca. 190 m²)
72
1
11
0
21
0
31
3.8
0
ENDBLK
0
BLOCK
2
OPTION_EFH
70
0
10
0
20
0
30
0
0
LWPOLYLINE
8
OPTION_EFH
90
4
70
1
10
-5
20
-4
10
5
20
-4
10
5
20
4
10
-5
20
4
0
3DFACE
8
OPTION_EFH
10
-5
20
-4
30
0
11
5
21
-4
31
0
12
5
22
4
32
0
13
-5
23
4
33
0
0
3DFACE
8
OPTION_EFH
10
-5
20
-4
30
7
11
5
21
-4
31
7
12
5
22
4
32
7
13
-5
23
4
33
7
0
LINE
8
OPTION_EFH
10
-5
20
-4
30
0
11
-5
21
-4
31
7
0
LINE
8
OPTION_EFH
10
5
20
-4
30
0
11
5
21
-4
31
7
0
LINE
8
OPTION_EFH
10
5
20
4
30
0
11
5
21
4
31
7
0
LINE
8
OPTION_EFH
10
-5
20
4
30
0
11
-5
21
4
31
7
0
TEXT
8
OPTION_EFH
10
0
20
0
30
7.3
40
0.6
1
EFH 10×8 m, 2 Geschosse (ca. 160 m²)
72
1
11
0
21
0
31
7.3
0
ENDBLK
0
BLOCK
2
OPTION_MFH
70
0
10
0
20
0
30
0
0
LWPOLYLINE
8
OPTION_MFH
90
4
70
1
10
-7
20
-5
10
7
20
-5
10
7
20
5
10
-7
20
5
0
3DFACE
8
OPTION_MFH
10
-7
20
-5
30
0
11
7
21
-5
31
0
12
7
22
5
32
0
13
-7
23
5
33
0
0
3DFACE
8
OPTION_MFH
10
-7
20
-5
30
10
11
7
21
-5
31
10
12
7
22
5
32
10
13
-7
23
5
33
10
0
LINE
8
OPTION_MFH
10
-7
20
-5
30
0
11
-7
21
-5
31
10
0
LINE
8
OPTION_MFH
10
7
20
-5
30
0
11
7
21
-5
31
10
0
LINE
8
OPTION_MFH
10
7
20
5
30
0
11
7
21
5
31
10
0
LINE
8
OPTION_MFH
10
-7
20
5
30
0
11
-7
21
5
31
10
0
TEXT
8
OPTION_MFH
10
0
20
0
30
10.3
40
0.6
1
MFH 14×10 m, 3 Geschosse (ca. 420 m²)
72
1
11
0
21
0
31
10.3
0
ENDBLK
0
BLOCK
2
OPTION_ERSATZ
70
0
10
0
20
0
30
0
0
LWPOLYLINE
8
OPTION_ERSATZ
90
4
70
1
10
-7
20
-5.5
10
7
20
-5.5
10
7
20
5.5
10
-7
20
5.5
0
3DFACE
8
OPTION_ERSATZ
10
-7
20
-5.5
30
0
11
7
21
-5.5
31
0
12
7
22
5.5
32
0
13
-7
23
5.5
33
0
0
3DFACE
8
OPTION_ERSATZ
10
-7
20
-5.5
30
7
11
7
21
-5.5
31
7
12
7
22
5.5
32
7
13
-7
23
5.5
33
7
0
LINE
8
OPTION_ERSATZ
10
-7
20
-5.5
30
0
11
-7
21
-5.5
31
7
0
LINE
8
OPTION_ERSATZ
10
7
20
-5.5
30
0
11
7
21
-5.5
31
7
0
LINE
8
OPTION_ERSATZ
10
7
20
5.5
30
0
11
7
21
5.5
31
7
0
LINE
8
OPTION_ERSATZ
10
-7
20
5.5
30
0
11
-7
21
5.5
31
7
0
TEXT
8
OPTION_ERSATZ
10
0
20
0
30
7.3
40
0.6
1
Ersatzneubau 14×11 m, 2 Geschosse
72
1
11
0
21
0
31
7.3
0
ENDBLK
0
BLOCK
2
PV_FELD
70
0
10
0
20
0
30
0
0
LWPOLYLINE
8
TECHNIK
90
4
70
1
10
-4
20
-2.5
10
4
20
-2.5
10
4
20
2.5
10
-4
20
2.5
0
3DFACE
8
TECHNIK
10
-4
20
-2.5
30
0
11
4
21
-2.5
31
0
12
4
22
2.5
32
0
13
-4
23
2.5
33
0
0
3DFACE
8
TECHNIK
10
-4
20
-2.5
30
0.5
11
4
21
-2.5
31
0.5
12
4
22
2.5
32
0.5
13
-4
23
2.5
33
0.5
0
LINE
8
TECHNIK
10
-4
20
-2.5
30
0
11
-4
21
-2.5
31
0.5
0
LINE
8
TECHNIK
10
4
20
-2.5
30
0
11
4
21
-2.5
31
0.5
0
LINE
8
TECHNIK
10
4
20
2.5
30
0
11
4
21
2.5
31
0.5
0
LINE
8
TECHNIK
10
-4
20
2.5
30
0
11
-4
21
2.5
31
0.5
0
TEXT
8
TECHNIK
10
0
20
0
30
0.8
40
0.6
1
PV-Feld (Platzhalter)
72
1
11
0
21
0
31
0.8
0
ENDBLK
0
BLOCK
2
ZISTERNE
70
0
10
0
20
0
30
0
0
CIRCLE
8
TECHNIK
10
0
20
0
30
0
40
1.5
0
CIRCLE
8
TECHNIK
10
0
20
0
30
2.4
40
1.5
0
TEXT
8
TECHNIK
10
0
20
0
30
2.6999999999999997
40
0.5
1
Zisterne (Platzhalter)
72
1
11
0
21
0
31
2.6999999999999997
0
ENDBLK
0
ENDSEC
0
SECTION
2
ENTITIES
0
LWPOLYLINE
8
SITE_BOUNDARY
90
4
70
1
10
-20
20
-30
10
20
20
-30
10
20
20
30
10
-20
20
30
0
LWPOLYLINE
8
SITE_BOUNDARY
90
4
70
1
10
-20
20
-30
10
20
20
-30
10
20
20
30
10
-20
20
30
0
INSERT
8
BESTAND
2
BESTAND_WOHNHAUS
10
-6
20
-16
30
0
41
1
42
1
43
1
50
0
0
INSERT
8
BESTAND
2
BESTAND_SCHUPPEN
10
12
20
-18
30
0
41
1
42
1
43
1
50
0
0
INSERT
8
BESTAND
2
BESTAND_GARAGE
10
-15
20
-20
30
0
41
1
42
1
43
1
50
0
0
LWPOLYLINE
8
BAUFENSTER
90
4
70
1
10
-8
20
2
10
20
20
2
10
20
20
27
10
-8
20
27
0
TEXT
8
BAUFENSTER
10
6
20
14.5
30
0
40
0.5
1
Baufenster ca. 700 m² (28×25 m)
72
1
11
6
21
14.5
31
0
0
LWPOLYLINE
8
ABSTAND
90
4
70
1
10
-20
20
27
10
20
20
27
10
20
20
30
10
-20
20
30
0
TEXT
8
ABSTAND
10
0
20
28.5
30
0
40
0.5
1
Grenzabstand 3 m
72
1
11
0
21
28.5
31
0
0
LWPOLYLINE
8
ABSTAND
90
4
70
1
10
17
20
-30
10
20
20
-30
10
20
20
30
10
17
20
30
0
TEXT
8
ABSTAND
10
18.5
20
0
30
0
40
0.5
1
Grenzabstand 3 m
72
1
11
18.5
21
0
31
0
0
LWPOLYLINE
8
STRASSE
90
4
70
1
10
-20
20
-30
10
-12
20
-30
10
-12
20
-8
10
-20
20
-8
0
TEXT
8
STRASSE
10
-16
20
-19
30
0
40
0.5
1
Durchfahrt / Zufahrt
72
1
11
-16
21
-19
31
0
0
LWPOLYLINE
8
LAERMSTREIFEN
90
4
70
1
10
-12
20
-30
10
-8
20
-30
10
-8
20
-8
10
-12
20
-8
0
TEXT
8
LAERMSTREIFEN
10
-10
20
-19
30
0
40
0.5
1
Lärmschutzstreifen 4 m (schematisch)
72
1
11
-10
21
-19
31
0
0
INSERT
8
OPTION_BUNGALOW
2
OPTION_BUNGALOW
10
55
20
18
30
0
41
1
42
1
43
1
50
0
0
INSERT
8
OPTION_EFH
2
OPTION_EFH
10
6
20
14
30
0
41
1
42
1
43
1
50
0
0
INSERT
8
OPTION_MFH
2
OPTION_MFH
10
55
20
0
30
0
41
1
42
1
43
1
50
0
0
INSERT
8
OPTION_ERSATZ
2
OPTION_ERSATZ
10
55
20
-18
30
0
41
1
42
1
43
1
50
0
0
INSERT
8
TECHNIK
2
PV_FELD
10
45
20
-8
30
0
41
1
42
1
43
1
50
0
0
INSERT
8
TECHNIK
2
ZISTERNE
10
45
20
-18
30
0
41
1
42
1
43
1
50
0
0
LWPOLYLINE
8
GRUENFLAECHE
90
4
70
1
10
45
20
-2
10
51
20
-2
10
51
20
2
10
45
20
2
0
TEXT
8
GRUENFLAECHE
10
48
20
0
30
0
40
0.5
1
Grünfläche (Platzhalter)
72
1
11
48
21
0
31
0
0
CIRCLE
8
BAEUME
10
-16
20
24
30
0
40
2.4
0
CIRCLE
8
BAEUME
10
-16
20
24
30
7.5
40
0.72
0
POINT
8
BAEUME
10
-16
20
24
30
0
0
CIRCLE
8
BAEUME
10
15
20
26
30
0
40
2
0
CIRCLE
8
BAEUME
10
15
20
26
30
6.8
40
0.6
0
POINT
8
BAEUME
10
15
20
26
30
0
0
CIRCLE
8
BAEUME
10
17
20
10
30
0
40
1.8
0
CIRCLE
8
BAEUME
10
17
20
10
30
6.2
40
0.54
0
POINT
8
BAEUME
10
17
20
10
30
0
0
CIRCLE
8
BAEUME
10
-17
20
-5
30
0
40
2.2
0
CIRCLE
8
BAEUME
10
-17
20
-5
30
7
40
0.66
0
POINT
8
BAEUME
10
-17
20
-5
30
0
0
TEXT
8
SITE_BOUNDARY
10
0
20
-33
30
0
40
1.2
1
Mustergrundstück Oberhofer (ca. 2400 m²)
72
1
11
0
21
-33
31
0
0
TEXT
8
SITE_BOUNDARY
10
0
20
-35
30
0
40
0.7
1
NUR MUSTER - Reale Geometrie aus Kundenplaenen
72
1
11
0
21
-35
31
0
0
TEXT
8
SITE_BOUNDARY
10
0
20
-36.5
30
0
40
0.5
1
Einheiten: Meter | DXF Version: R2010 (AC1024)
72
1
11
0
21
-36.5
31
0
0
ENDSEC
0
EOF
